<svg width="36" height="36" viewBox="0 0 36 36" fill="none"
    xmlns="http://www.w3.org/2000/svg">
    <path d="M26.6133 11.7422H9.31641C8.73394 11.7422 8.26172 12.2144 8.26172 12.7969V27.758C8.26172 28.3404 8.73394 28.8127 9.31641 28.8127H10.6523V32.8359C10.6523 34.5806 12.0717 36 13.8164 36C15.5611 36 16.9805 34.5806 16.9805 32.8359V28.8127H19.0898V32.8359C19.0898 34.5806 20.5092 36 22.2539 36C23.9986 36 25.418 34.5806 25.418 32.8359V28.8127H26.6133C27.1957 28.8127 27.668 28.3404 27.668 27.758V12.7969C27.668 12.2144 27.1957 11.7422 26.6133 11.7422Z" fill="#00A0FF"/>
    <path d="M31.957 11.7422C30.2124 11.7422 28.793 13.1616 28.793 14.9062V21.1641C28.793 22.9087 30.2124 24.3281 31.957 24.3281C33.7017 24.3281 35.1211 22.9087 35.1211 21.1641V14.9062C35.1211 13.1616 33.7017 11.7422 31.957 11.7422Z" fill="#00A0FF"/>
    <path d="M4.04297 11.7422C2.2983 11.7422 0.878906 13.1616 0.878906 14.9062V21.1641C0.878906 22.9087 2.2983 24.3281 4.04297 24.3281C5.78763 24.3281 7.20703 22.9087 7.20703 21.1641V14.9062C7.20703 13.1616 5.78763 11.7422 4.04297 11.7422Z" fill="#00A0FF"/>
    <path d="M27.4294 1.80042C27.8412 1.3886 27.8412 0.720844 27.4294 0.308953C27.0176 -0.102937 26.3498 -0.102937 25.9379 0.308953L24.0752 2.1716C22.4058 0.814641 20.2788 0 17.9648 0C15.6867 0 13.5898 0.789539 11.9324 2.10881L10.1325 0.308953C9.7207 -0.102937 9.05287 -0.102937 8.64098 0.308953C8.22909 0.720844 8.22909 1.3886 8.64098 1.80049L10.4333 3.59283C9.07636 5.26219 8.26172 7.38921 8.26172 9.70312C8.26172 10.2856 8.73394 10.7578 9.31641 10.7578H26.6133C27.1957 10.7578 27.668 10.2856 27.668 9.70312C27.668 7.425 26.8784 5.32807 25.5592 3.67066L27.4294 1.80042Z" fill="#00A0FF"/>
</svg>
