<svg width="64" height="64" viewBox="0 0 64 64" fill="none" xmlns="http://www.w3.org/2000/svg">
<path d="M59 14H48V3C48 2.73478 47.8946 2.48043 47.7071 2.29289C47.5196 2.10536 47.2652 2 47 2H17C16.7348 2 16.4804 2.10536 16.2929 2.29289C16.1054 2.48043 16 2.73478 16 3V14H5C4.20508 14.0024 3.4434 14.3192 2.8813 14.8813C2.31921 15.4434 2.00237 16.2051 2 17V49C2.00237 49.7949 2.31921 50.5566 2.8813 51.1187C3.4434 51.6808 4.20508 51.9976 5 52H24.82L24.15 56H23C22.8449 56.0011 22.6922 56.0377 22.5535 56.107C22.4148 56.1764 22.2939 56.2766 22.2 56.4L19.2 60.4C19.0886 60.5486 19.0207 60.7252 19.004 60.9102C18.9874 61.0952 19.0225 61.2811 19.1056 61.4472C19.1886 61.6133 19.3163 61.753 19.4743 61.8507C19.6322 61.9483 19.8143 62 20 62H44C44.1857 62 44.3678 61.9483 44.5257 61.8507C44.6837 61.753 44.8114 61.6133 44.8944 61.4472C44.9775 61.2811 45.0126 61.0952 44.996 60.9102C44.9793 60.7252 44.9114 60.5486 44.8 60.4L41.8 56.4C41.7061 56.2766 41.5852 56.1764 41.4465 56.107C41.3078 56.0377 41.1551 56.0011 41 56H39.85L39.18 52H59C59.7949 51.9976 60.5566 51.6808 61.1187 51.1187C61.6808 50.5566 61.9976 49.7949 62 49V17C61.9976 16.2051 61.6808 15.4434 61.1187 14.8813C60.5566 14.3192 59.7949 14.0024 59 14ZM18 4H46V24H18V4ZM40.5 58L42 60H22L23.5 58H40.5ZM26.18 56L26.85 52H37.15L37.82 56H26.18ZM60 49C60 49.2652 59.8946 49.5196 59.7071 49.7071C59.5196 49.8946 59.2652 50 59 50H5C4.73478 50 4.48043 49.8946 4.29289 49.7071C4.10536 49.5196 4 49.2652 4 49V46H60V49ZM60 44H4V17C4 16.7348 4.10536 16.4804 4.29289 16.2929C4.48043 16.1054 4.73478 16 5 16H16V25C16 25.2652 16.1054 25.5196 16.2929 25.7071C16.4804 25.8946 16.7348 26 17 26H47C47.2652 26 47.5196 25.8946 47.7071 25.7071C47.8946 25.5196 48 25.2652 48 25V16H59C59.2652 16 59.5196 16.1054 59.7071 16.2929C59.8946 16.4804 60 16.7348 60 17V44Z" fill="#00A0FF"/>
<path d="M57 28H45C44.7348 28 44.4804 28.1054 44.2929 28.2929C44.1054 28.4804 44 28.7348 44 29V30H36V29C36 28.7348 35.8946 28.4804 35.7071 28.2929C35.5196 28.1054 35.2652 28 35 28H29C28.7348 28 28.4804 28.1054 28.2929 28.2929C28.1054 28.4804 28 28.7348 28 29V30H20V29C20 28.7348 19.8946 28.4804 19.7071 28.2929C19.5196 28.1054 19.2652 28 19 28H7C6.73478 28 6.48043 28.1054 6.29289 28.2929C6.10536 28.4804 6 28.7348 6 29V33C6 33.2652 6.10536 33.5196 6.29289 33.7071C6.48043 33.8946 6.73478 34 7 34H19C19.2652 34 19.5196 33.8946 19.7071 33.7071C19.8946 33.5196 20 33.2652 20 33V32H28V33C28 33.2652 28.1054 33.5196 28.2929 33.7071C28.4804 33.8946 28.7348 34 29 34H31V36H29C28.7348 36 28.4804 36.1054 28.2929 36.2929C28.1054 36.4804 28 36.7348 28 37V41C28 41.2652 28.1054 41.5196 28.2929 41.7071C28.4804 41.8946 28.7348 42 29 42H35C35.2652 42 35.5196 41.8946 35.7071 41.7071C35.8946 41.5196 36 41.2652 36 41V37C36 36.7348 35.8946 36.4804 35.7071 36.2929C35.5196 36.1054 35.2652 36 35 36H33V34H35C35.2652 34 35.5196 33.8946 35.7071 33.7071C35.8946 33.5196 36 33.2652 36 33V32H44V33C44 33.2652 44.1054 33.5196 44.2929 33.7071C44.4804 33.8946 44.7348 34 45 34H57C57.2652 34 57.5196 33.8946 57.7071 33.7071C57.8946 33.5196 58 33.2652 58 33V29C58 28.7348 57.8946 28.4804 57.7071 28.2929C57.5196 28.1054 57.2652 28 57 28ZM18 32H8V30H18V32ZM34 38V40H30V38H34ZM34 32H30V30H34V32ZM56 32H46V30H56V32Z" fill="#00A0FF"/>
<path d="M26.293 7.29303L20.293 13.293C20.1056 13.4806 20.0002 13.7349 20.0002 14C20.0002 14.2652 20.1056 14.5195 20.293 14.707L26.293 20.707L27.707 19.293L22.414 14L27.707 8.70703L26.293 7.29303Z" fill="#00A0FF"/>
<path d="M37.707 7.29303L36.293 8.70703L41.586 14L36.293 19.293L37.707 20.707L43.707 14.707C43.8944 14.5195 43.9998 14.2652 43.9998 14C43.9998 13.7349 43.8944 13.4806 43.707 13.293L37.707 7.29303Z" fill="#00A0FF"/>
<path d="M34.0544 4.68395L28.0486 22.6824L29.9448 23.3151L35.9506 5.31668L34.0544 4.68395Z" fill="#00A0FF"/>
</svg>
