<svg width="36" height="36" viewBox="0 0 36 36" fill="none"
    xmlns="http://www.w3.org/2000/svg">
    <g clip-path="url(#clip0)">
        <path d="M24.7485 0C22.8292 0.132749 20.586 1.36124 19.2788 2.96098C18.0863 4.41222 17.1053 6.56771 17.4878 8.66245C19.5848 8.7277 21.7515 7.46996 23.007 5.84322C24.1815 4.32897 25.0702 2.18699 24.7485 0Z" fill="#00A0FF"/>
        <path d="M32.3332 12.0779C30.4905 9.76719 27.9008 8.4262 25.455 8.4262C22.2263 8.4262 20.8605 9.97194 18.6173 9.97194C16.3043 9.97194 14.5471 8.4307 11.7548 8.4307C9.01211 8.4307 6.09163 10.1069 4.23989 12.9734C1.63666 17.0099 2.08215 24.5991 6.30088 31.0633C7.81062 33.3763 9.82661 35.9773 12.4636 35.9998C14.8103 36.0223 15.4718 34.4946 18.6511 34.4788C21.8303 34.4608 22.4333 36.0201 24.7755 35.9953C27.4148 35.9751 29.541 33.0928 31.0507 30.7798C32.133 29.1216 32.5357 28.2869 33.375 26.4149C27.2708 24.0906 26.292 15.4102 32.3332 12.0779Z" fill="#00A0FF"/>
    </g>
    <defs>
        <clipPath id="clip0">
            <rect width="36" height="36" fill="white"/>
        </clipPath>
    </defs>
</svg>
