<svg width="36" height="36" viewBox="0 0 36 36" fill="none"
    xmlns="http://www.w3.org/2000/svg">
    <path d="M34.56 0H1.44C0.6435 0 0 0.6435 0 1.44V34.56C0 35.3565 0.6435 36 1.44 36H34.56C35.3565 36 36 35.3565 36 34.56V1.44C36 0.6435 35.3565 0 34.56 0ZM30.402 10.5075H27.5265C25.272 10.5075 24.8355 11.5785 24.8355 13.1535V16.623H30.2175L29.5155 22.0545H24.8355V36H19.224V22.059H14.5305V16.623H19.224V12.618C19.224 7.9695 22.0635 5.436 26.2125 5.436C28.2015 5.436 29.907 5.5845 30.4065 5.652V10.5075H30.402Z" fill="#00A0FF"/>
</svg>
