<svg width="100%" height="835" viewBox="0 0 1440 835" preserveAspectRatio="none" fill="none" xmlns="http://www.w3.org/2000/svg">
<path opacity="0.1" d="M0 26.8951C0 26.8951 133.333 -33.6188 279.245 26.8951C425.157 87.409 656.604 -3.61188 750.189 26.8951C843.774 57.402 1055.09 83.9083 1182.39 26.8951C1309.69 -30.1181 1440 26.8951 1440 26.8951V483H0V26.8951Z" fill="#69E2FD"/>
<path opacity="0.1" d="M0 808.105C0 808.105 133.333 868.619 279.245 808.105C425.157 747.591 656.604 838.612 750.189 808.105C843.774 777.598 1055.09 751.092 1182.39 808.105C1309.69 865.118 1440 808.105 1440 808.105V483H0L0 808.105Z" fill="#69E2FD"/>
</svg>
