<svg width="194" height="93" viewBox="0 0 194 93" fill="none"
    xmlns="http://www.w3.org/2000/svg">
    <path d="M95.728 36.624V56.272C95.728 56.9547 95.6 57.424 95.344 57.68C95.1307 57.8933 94.6827 58 94 58H90.608V19.28C90.608 17.0613 91.056 15.504 91.952 14.608C92.8907 13.6693 94.4693 13.2 96.688 13.2H105.904C108.123 13.2 109.68 13.6693 110.576 14.608C111.515 15.504 111.984 17.0613 111.984 19.28V56.272C111.984 56.9547 111.856 57.424 111.6 57.68C111.387 57.8933 110.939 58 110.256 58H106.864V20.56C106.864 19.3227 106.693 18.4267 106.352 17.872C106.053 17.3173 105.349 16.9973 104.24 16.912H98.352C97.2 16.9973 96.4747 17.3173 96.176 17.872C95.8773 18.4267 95.728 19.3227 95.728 20.56V32.912H104.304V34.896C104.304 35.5787 104.197 36.048 103.984 36.304C103.813 36.5173 103.387 36.624 102.704 36.624H95.728ZM123.46 36.4V56.704C123.46 57.216 123.364 57.568 123.172 57.76C123.012 57.92 122.676 58 122.164 58H119.62V34.912C119.62 34.4 119.7 34.064 119.86 33.904C120.052 33.712 120.404 33.616 120.916 33.616H123.46V36.4C123.876 35.312 124.308 34.576 124.756 34.192C125.204 33.808 125.892 33.616 126.82 33.616H128.692C129.204 33.616 129.524 33.712 129.652 33.904C129.812 34.064 129.892 34.4 129.892 34.912V36.4H123.46ZM145.247 58C144.565 58 144.117 57.8933 143.903 57.68C143.733 57.424 143.647 56.9547 143.647 56.272V54.288H148.575C149.898 54.288 150.73 54.0107 151.071 53.456C151.413 52.9013 151.583 51.9627 151.583 50.64V40.272C151.583 38.9493 151.413 38.0107 151.071 37.456C150.73 36.9013 149.898 36.624 148.575 36.624H141.087V58H135.967V14.928C135.967 14.2453 136.074 13.7973 136.287 13.584C136.543 13.328 137.013 13.2 137.695 13.2H150.623C152.842 13.2 154.399 13.6693 155.295 14.608C156.234 15.504 156.703 17.0613 156.703 19.28V28.624C156.703 31.9093 155.53 33.8293 153.183 34.384V34.512C154.421 34.8533 155.317 35.472 155.871 36.368C156.426 37.264 156.703 38.5653 156.703 40.272V51.92C156.703 54.1387 156.234 55.7173 155.295 56.656C154.399 57.552 152.842 58 150.623 58H145.247ZM141.087 16.912V32.912H148.959C150.069 32.8693 150.773 32.5707 151.071 32.016C151.413 31.4187 151.583 30.5013 151.583 29.264V20.56C151.583 19.2373 151.413 18.2987 151.071 17.744C150.73 17.1893 149.898 16.912 148.575 16.912H141.087ZM175.077 39.136C175.077 38.144 174.949 37.44 174.693 37.024C174.437 36.608 173.813 36.4 172.821 36.4H164.517C164.709 35.472 164.997 34.784 165.381 34.336C165.797 33.856 166.469 33.616 167.397 33.616H174.357C176.021 33.616 177.189 33.968 177.861 34.672C178.565 35.344 178.917 36.512 178.917 38.176V58H176.373C175.861 58 175.509 57.92 175.317 57.76C175.157 57.568 175.077 57.216 175.077 56.704V39.136ZM168.117 58C166.453 58 165.269 57.664 164.565 56.992C163.893 56.288 163.557 55.104 163.557 53.44V48.16C163.557 46.496 163.893 45.328 164.565 44.656C165.269 43.952 166.453 43.6 168.117 43.6H172.197C173.125 43.6 173.781 43.84 174.165 44.32C174.581 44.768 174.885 45.456 175.077 46.384H169.653C168.661 46.384 168.037 46.592 167.781 47.008C167.525 47.424 167.397 48.128 167.397 49.12V52.864C167.397 53.856 167.573 54.496 167.925 54.784C168.309 55.072 168.997 55.216 169.989 55.216H173.157V56.704C173.157 57.216 173.077 57.568 172.917 57.76C172.789 57.92 172.469 58 171.957 58H168.117Z" fill="#00A0FF"/>
    <path d="M96.28 65.624C94.808 65.624 93.656 66.096 92.824 67.04C92.008 67.984 91.6 69.576 91.6 71.816C91.6 74.04 92.008 75.672 92.824 76.712C93.656 77.752 94.688 78.272 95.92 78.272C96.704 78.272 97.472 78.096 98.224 77.744V73.88H95.536V71.96H100.384V78.848C98.848 79.824 97.312 80.312 95.776 80.312C93.968 80.312 92.456 79.688 91.24 78.44C90.616 77.8 90.12 76.928 89.752 75.824C89.4 74.704 89.224 73.408 89.224 71.936C89.224 69.056 89.816 66.952 91 65.624C92.2 64.296 93.84 63.632 95.92 63.632C97.12 63.632 98.384 63.816 99.712 64.184L99.232 65.984C98.16 65.744 97.176 65.624 96.28 65.624ZM117 75.872H111.36L109.992 80H107.64L112.896 63.968H115.464L120.72 80H118.392L117 75.872ZM116.472 74.072L114.168 66.152L111.888 74.072H116.472ZM141.277 68.624C141.261 68.288 141.253 67.952 141.253 67.616C141.253 67.28 141.261 66.944 141.277 66.608L136.909 78.248H135.085L130.717 66.608C130.733 66.944 130.741 67.28 130.741 67.616C130.741 67.952 130.733 68.288 130.717 68.624L130.333 80H128.221L128.965 63.968H131.629L135.997 75.848L140.365 63.968H143.029L143.773 80H141.661L141.277 68.624ZM155.3 78.056H162.116V80H152.996V63.968H161.9V65.912H155.3V70.76H161.516V72.656H155.3V78.056ZM179.848 75.824C179.848 77.12 179.384 78.192 178.456 79.04C177.528 79.888 176.304 80.312 174.784 80.312C173.968 80.312 173.096 80.224 172.168 80.048C171.256 79.872 170.52 79.648 169.96 79.376L170.584 77.336C172.152 77.96 173.456 78.272 174.496 78.272C175.536 78.272 176.32 78.048 176.848 77.6C177.376 77.136 177.64 76.552 177.64 75.848C177.64 75.144 177.352 74.544 176.776 74.048C176.2 73.552 175.448 73.08 174.52 72.632C173.608 72.168 172.992 71.84 172.672 71.648C172.352 71.456 171.984 71.168 171.568 70.784C170.768 70.096 170.368 69.104 170.368 67.808C170.368 66.512 170.824 65.496 171.736 64.76C172.648 64.024 173.76 63.656 175.072 63.656C176.4 63.656 177.76 63.912 179.152 64.424L178.528 66.344C177.312 65.912 176.232 65.696 175.288 65.696C174.36 65.696 173.672 65.888 173.224 66.272C172.792 66.64 172.576 67.128 172.576 67.736C172.576 68.344 172.832 68.864 173.344 69.296C173.856 69.712 174.528 70.144 175.36 70.592C176.192 71.024 176.8 71.368 177.184 71.624C177.584 71.88 178.016 72.208 178.48 72.608C179.392 73.44 179.848 74.512 179.848 75.824Z" fill="#FF8C00"/>
    <g clip-path="url(#clip0)">
        <rect x="31" y="16" width="26" height="58" rx="13" stroke="#00B2FF" stroke-width="6"/>
        <rect x="31" y="74" width="27" height="46" rx="13.5" transform="rotate(-90 31 74)" stroke="#0074A6" stroke-width="6"/>
        <path d="M8.92443 49.267L8.93209 49.2564L8.93966 49.2459L30.7333 18.7915L31 18.4468V60.4806C31 67.9472 24.9472 74 17.4806 74C6.42521 74 0.0435772 61.4523 6.55507 52.5179L8.92443 49.267Z" stroke="#FF8700" stroke-width="6"/>
        <circle cx="17.5" cy="60.5" r="13.5" stroke="#A65800" stroke-width="6"/>
    </g>
    <defs>
        <clipPath id="clip0">
            <rect width="80" height="64" fill="white" transform="translate(0 13)"/>
        </clipPath>
    </defs>
</svg>
