<svg width="64" height="64" viewBox="0 0 64 64" fill="none"
    xmlns="http://www.w3.org/2000/svg">
    <path d="M29.0299 5C29.5819 5 30.0299 4.553 30.0299 4C30.0299 3.447 29.5819 3 29.0299 3H29.0199C28.4679 3 28.0259 3.447 28.0259 4C28.0259 4.553 28.4779 5 29.0299 5Z" fill="#00A0FF"/>
    <path d="M32 5H35C35.553 5 36 4.553 36 4C36 3.447 35.553 3 35 3H32C31.447 3 31 3.447 31 4C31 4.553 31.447 5 32 5Z" fill="#00A0FF"/>
    <path d="M50 57V6.002C50 2.697 47.315 0.01 44.013 0.003C44.009 0.003 44.005 0 44 0H20C16.691 0 14 2.691 14 6V57C14 60.859 17.141 64 21 64H43C46.859 64 50 60.859 50 57ZM48 50H16V8.002H48V50ZM16 52H32H48V53C48 55.757 45.757 58 43 58H32H21C18.243 58 16 55.757 16 53V52ZM20 2H43.99C43.994 2 43.996 2.002 44 2.002C46.206 2.002 48 3.796 48 6.002H16V6C16 3.794 17.794 2 20 2ZM43 62H21C18.582 62 16.562 60.274 16.1 57.99C17.364 59.231 19.094 60 21 60H43C44.906 60 46.636 59.231 47.9 57.99C47.438 60.274 45.418 62 43 62Z" fill="#00A0FF"/>
    <path d="M29 55C29 56.654 30.346 58 32 58C33.654 58 35 56.654 35 55C35 53.346 33.654 52 32 52C30.346 52 29 53.346 29 55ZM32 54C32.552 54 33 54.448 33 55C33 55.552 32.552 56 32 56C31.448 56 31 55.552 31 55C31 54.448 31.448 54 32 54Z" fill="#00A0FF"/>
    <path d="M23 42.998H41C43.757 42.998 46 40.755 46 37.998V19.998C46 17.241 43.757 14.998 41 14.998H23C20.243 14.998 18 17.241 18 19.998V37.998C18 40.755 20.243 42.998 23 42.998ZM20 19.998C20 18.344 21.346 16.998 23 16.998H41C42.654 16.998 44 18.344 44 19.998V37.998C44 39.652 42.654 40.998 41 40.998H23C21.346 40.998 20 39.652 20 37.998V19.998Z" fill="#00A0FF"/>
    <path d="M28.001 32.002C28.257 32.002 28.513 31.904 28.708 31.709C29.099 31.318 29.099 30.686 28.708 30.295L27.416 29.003L28.708 27.71C29.099 27.319 29.099 26.687 28.708 26.296C28.317 25.905 27.685 25.905 27.294 26.296L25.295 28.296C24.904 28.687 24.904 29.319 25.295 29.71L27.294 31.709C27.489 31.904 27.745 32.002 28.001 32.002Z" fill="#00A0FF"/>
    <path d="M35.2991 31.709C35.4941 31.904 35.7501 32.002 36.0061 32.002C36.2621 32.002 36.5181 31.904 36.7131 31.709L38.7121 29.71C39.1031 29.319 39.1031 28.687 38.7121 28.296L36.7131 26.296C36.3221 25.905 35.6901 25.905 35.2991 26.296C34.9081 26.687 34.9081 27.319 35.2991 27.71L36.5911 29.003L35.2991 30.295C34.9081 30.686 34.9081 31.318 35.2991 31.709Z" fill="#00A0FF"/>
    <path d="M30.687 32.951C30.792 32.986 30.899 33.003 31.003 33.003C31.422 33.003 31.813 32.738 31.952 32.319L33.95 26.319C34.125 25.795 33.842 25.228 33.318 25.054C32.791 24.879 32.227 25.162 32.053 25.686L30.054 31.686C29.88 32.211 30.163 32.777 30.687 32.951Z" fill="#00A0FF"/>
    <path d="M32 40C38.065 40 43 35.065 43 29C43 22.935 38.065 18 32 18C25.935 18 21 22.935 21 29C21 35.065 25.935 40 32 40ZM32 20C36.963 20 41 24.037 41 29C41 33.963 36.963 38 32 38C27.037 38 23 33.963 23 29C23 24.037 27.037 20 32 20Z" fill="#00A0FF"/>
</svg>
