<svg width="36" height="36" viewBox="0 0 36 36" fill="none"
    xmlns="http://www.w3.org/2000/svg">
    <path d="M18.0001 32.4C18.6628 32.4 19.2001 31.8627 19.2001 31.2C19.2001 30.5372 18.6628 30 18.0001 30C17.3373 30 16.8 30.5372 16.8 31.2C16.8 31.8627 17.3373 32.4 18.0001 32.4Z" fill="#00A0FF"/>
    <path d="M25.2 12.6H27V11.4H9V12.6H22.8C23.1312 12.6 23.4 12.8682 23.4 13.2C23.4 13.5318 23.1312 13.8 22.8 13.8H9V15H27V13.8H25.2C24.8688 13.8 24.6 13.5318 24.6 13.2C24.6 12.8682 24.8688 12.6 25.2 12.6Z" fill="#00A0FF"/>
    <path d="M28.7999 0H7.1999C6.20751 0 5.3999 0.807609 5.3999 1.8V34.2C5.3999 35.1924 6.20751 36 7.1999 36H28.7999C29.7923 36 30.5999 35.1924 30.5999 34.2V1.8C30.5999 0.807609 29.7923 0 28.7999 0ZM17.9999 33.6C16.6763 33.6 15.5999 32.5236 15.5999 31.2C15.5999 29.8764 16.6763 28.8001 17.9999 28.8001C19.3235 28.8001 20.3999 29.8765 20.3999 31.2C20.3999 32.5236 19.3229 33.6 17.9999 33.6ZM17.9999 27C15.6839 27 13.7999 25.1154 13.7999 22.8C13.7999 21.3894 14.5019 20.0815 15.6773 19.3002C15.9533 19.116 16.326 19.1922 16.5089 19.4676C16.6925 19.7436 16.6176 20.1163 16.3415 20.2999C15.5015 20.8579 14.9999 21.7927 14.9999 22.8C14.9999 24.4542 16.3457 25.8 17.9999 25.8C19.6541 25.8 20.9999 24.4543 20.9999 22.8C20.9999 21.7927 20.4983 20.8584 19.6583 20.2999C19.3823 20.1163 19.3073 19.7437 19.4903 19.4676C19.6739 19.1917 20.0465 19.1154 20.3219 19.3002C21.4979 20.0814 22.1999 21.3894 22.1999 22.8C22.1999 25.1154 20.3159 27 17.9999 27ZM17.3999 22.8V18.6C17.3999 18.2682 17.6687 18.0001 17.9999 18.0001C18.3311 18.0001 18.5999 18.2682 18.5999 18.6V22.8C18.5999 23.1318 18.3311 23.4 17.9999 23.4C17.6687 23.4 17.3999 23.1318 17.3999 22.8ZM28.1999 15.6C28.1999 15.9318 27.9311 16.2 27.5999 16.2H8.39993C8.06875 16.2 7.79995 15.9318 7.79995 15.6V10.8C7.79995 10.4682 8.06875 10.2 8.39993 10.2H27.5999C27.9311 10.2 28.1999 10.4682 28.1999 10.8V15.6ZM28.1999 7.79998C28.1999 8.13178 27.9311 8.39995 27.5999 8.39995H8.39993C8.06875 8.39995 7.79995 8.13178 7.79995 7.79998V3.00002C7.79995 2.66822 8.06875 2.40005 8.39993 2.40005H27.5999C27.9311 2.40005 28.1999 2.66822 28.1999 3.00002V7.79998Z" fill="#00A0FF"/>
    <path d="M25.2 4.80002H27V3.6H9V4.80002H22.8C23.1312 4.80002 23.4 5.06819 23.4 5.4C23.4 5.7318 23.1312 5.99997 22.8 5.99997H9V7.2H27V5.99997H25.2C24.8688 5.99997 24.6 5.7318 24.6 5.4C24.6 5.06819 24.8688 4.80002 25.2 4.80002Z" fill="#00A0FF"/>
</svg>
