<svg width="36" height="36" viewBox="0 0 36 36" fill="none"
    xmlns="http://www.w3.org/2000/svg">
    <path d="M26.0248 0H9.975C8.63786 0 7.54346 1.09337 7.54346 2.43154V33.5674C7.54346 34.9056 8.63786 36 9.975 36H26.0248C27.362 36 28.4564 34.9077 28.4564 33.5685V2.43154C28.4564 1.09337 27.362 0 26.0248 0ZM15.4326 1.75269H20.5672C20.7297 1.75269 20.8614 1.88434 20.8614 2.04789C20.8614 2.2104 20.7297 2.34206 20.5672 2.34206H15.4326C15.2701 2.34206 15.1384 2.2104 15.1384 2.04789C15.1384 1.88434 15.2701 1.75269 15.4326 1.75269ZM17.9999 34.7842C17.3283 34.7842 16.7841 34.2401 16.7841 33.5674C16.7841 32.8947 17.3283 32.3517 17.9999 32.3517C18.6716 32.3517 19.2157 32.8947 19.2157 33.5674C19.2157 34.2401 18.6716 34.7842 17.9999 34.7842ZM26.7644 31.5H9.23546V3.85611H26.7644V31.5Z" fill="#00A0FF"/>
</svg>
