<svg width="64" height="64" viewBox="0 0 64 64" fill="none"
    xmlns="http://www.w3.org/2000/svg">
    <path d="M15.482 8.95488H13.2075C13.5496 6.42201 14.9501 6.29476 15.5946 6.23613C16.2385 6.17751 16.7314 5.63776 16.7314 4.99126V1.25063C16.7314 0.907007 16.5899 0.578382 16.3401 0.342257C16.0904 0.106132 15.7541 -0.0162426 15.4113 0.00263238C11.46 0.224882 6.75 2.21988 6.75 10.4621V16.9671C6.75 18.053 7.63337 18.9364 8.71925 18.9364H15.4821C16.568 18.9364 17.4514 18.0529 17.4513 16.967V10.9241C17.4513 9.83826 16.5679 8.95488 15.482 8.95488ZM14.9514 16.4363H9.25V10.4621C9.25 4.71088 11.8076 3.10463 14.2314 2.65126V3.96551C12.5575 4.47501 10.631 5.97976 10.631 10.2049C10.631 10.8953 11.1906 11.4549 11.881 11.4549H14.9514V16.4363Z" fill="#00A0FF"/>
    <path d="M28.2614 8.95488H25.9868C26.3289 6.42201 27.7294 6.29476 28.3739 6.23613C29.0178 6.17751 29.5107 5.63776 29.5107 4.99126V1.25063C29.5107 0.907007 29.3692 0.578382 29.1194 0.342257C28.8697 0.106132 28.5332 -0.0162426 28.1905 0.00263238C24.2393 0.224882 19.5293 2.21988 19.5293 10.4621V16.9671C19.5293 18.053 20.4127 18.9364 21.4985 18.9364H28.2614C29.3473 18.9364 30.2308 18.0529 30.2307 16.9669V10.9241C30.2307 9.83826 29.3473 8.95488 28.2614 8.95488ZM27.7307 16.4364H22.0293V10.4621C22.0293 4.71088 24.5869 3.10463 27.0107 2.65126V3.96551C25.3368 4.47501 23.4103 5.97976 23.4103 10.2049C23.4103 10.8953 23.9699 11.4549 24.6603 11.4549H27.7307V16.4364Z" fill="#00A0FF"/>
    <path d="M35.6338 10.0994C35.4013 9.8669 35.0788 9.73315 34.75 9.73315C34.4212 9.73315 34.0987 9.8669 33.8662 10.0994C33.6337 10.3319 33.5 10.6544 33.5 10.9832C33.5 11.3119 33.6337 11.6344 33.8662 11.8669C34.0987 12.0994 34.4212 12.2332 34.75 12.2332C35.0788 12.2332 35.4013 12.0994 35.6338 11.8669C35.8663 11.6344 36 11.3119 36 10.9832C36 10.6544 35.8663 10.3319 35.6338 10.0994Z" fill="#00A0FF"/>
    <path d="M41.7834 9.73291H40.2082C39.5179 9.73291 38.9582 10.2925 38.9582 10.9829C38.9582 11.6733 39.5179 12.2329 40.2082 12.2329H41.7834C52.6551 12.2329 61.5 21.0778 61.5 31.9495C61.5 41.2285 54.919 49.3435 45.8516 51.2452C45.2727 51.3667 44.8582 51.8772 44.8582 52.4685V59.7315L37.159 52.0323C36.9246 51.7979 36.6066 51.6662 36.2751 51.6662H22.2166C11.3449 51.6662 2.5 42.8213 2.5 31.9495C2.5 28.5989 3.35538 25.2903 4.97375 22.381C5.3095 21.7778 5.09237 21.0167 4.48912 20.681C3.88575 20.3453 3.12462 20.5624 2.78912 21.1657C0.964375 24.4455 0 28.1745 0 31.9495C0 44.1999 9.96625 54.1662 22.2166 54.1662H35.7574L45.2244 63.6332C45.4635 63.8723 45.7831 63.9993 46.1085 63.9993C46.2695 63.9993 46.432 63.9682 46.5866 63.904C47.0536 63.7107 47.3582 63.2549 47.3582 62.7493V53.4592C51.8811 52.2872 55.9707 49.6793 58.9591 46.0413C62.2098 42.0842 64 37.0797 64 31.9495C64 19.6993 54.0337 9.73304 41.7834 9.73291Z" fill="#00A0FF"/>
    <path d="M47.3831 22.1865H16.6172C15.9268 22.1865 15.3672 22.7461 15.3672 23.4365C15.3672 24.1269 15.9268 24.6865 16.6172 24.6865H47.3829C48.0733 24.6865 48.6331 24.1269 48.6331 23.4365C48.6331 22.7461 48.0734 22.1865 47.3831 22.1865Z" fill="#00A0FF"/>
    <path d="M47.3831 28.8533H16.6172C15.9268 28.8533 15.3672 29.4129 15.3672 30.1033C15.3672 30.7936 15.9268 31.3533 16.6172 31.3533H47.3829C48.0733 31.3533 48.6331 30.7936 48.6331 30.1033C48.6331 29.4129 48.0734 28.8533 47.3831 28.8533Z" fill="#00A0FF"/>
    <path d="M47.3831 35.5198H16.6172C15.9268 35.5198 15.3672 36.0795 15.3672 36.7698C15.3672 37.46 15.9268 38.0198 16.6172 38.0198H47.3829C48.0733 38.0198 48.6331 37.46 48.6331 36.7698C48.6331 36.0795 48.0734 35.5198 47.3831 35.5198Z" fill="#00A0FF"/>
    <path d="M47.3829 42.1865H30.9839C30.2935 42.1865 29.7339 42.7463 29.7339 43.4365C29.7339 44.1268 30.2935 44.6865 30.9839 44.6865H47.3829C48.0733 44.6865 48.6329 44.1268 48.6329 43.4365C48.6329 42.7463 48.0733 42.1865 47.3829 42.1865Z" fill="#00A0FF"/>
    <path d="M23.9508 42.1865H23.9307C23.2403 42.1865 22.6807 42.7463 22.6807 43.4365C22.6807 44.1268 23.2403 44.6865 23.9307 44.6865H23.9508C24.6412 44.6865 25.2008 44.1268 25.2008 43.4365C25.2008 42.7463 24.6412 42.1865 23.9508 42.1865Z" fill="#00A0FF"/>
</svg>
