<svg width="16" height="16" viewBox="0 0 16 16" fill="none"
    xmlns="http://www.w3.org/2000/svg">
    <g clip-path="url(#clip0)">
        <path d="M10.3418 6.27562C10.1989 6.15981 9.98973 6.18134 9.8737 6.32396L7.84608 8.81679L6.52526 7.71513C6.38395 7.59734 6.17408 7.61638 6.05651 7.7575C5.93873 7.89856 5.95776 8.10844 6.09889 8.22603L7.67861 9.54332C7.74717 9.60032 7.83523 9.62763 7.92376 9.61898C8.01204 9.61057 8.0937 9.56685 8.15007 9.49763L10.3902 6.7435C10.5057 6.60109 10.4845 6.3914 10.3418 6.27562Z" fill="#00A0FF"/>
        <path d="M8.02426 2.1452C4.77695 2.1452 2.14551 4.77711 2.14551 8.02395C2.14551 11.2706 4.77698 13.9027 8.02426 13.9027C11.2718 13.9027 13.903 11.2706 13.903 8.02395C13.903 4.77733 11.2718 2.1452 8.02426 2.1452ZM8.02426 13.2372C5.14985 13.2372 2.81101 10.8985 2.81101 8.02395C2.81101 5.14936 5.14988 2.81067 8.02426 2.81067C10.8991 2.81067 13.2375 5.14933 13.2375 8.02392C13.2375 10.8985 10.8991 13.2372 8.02426 13.2372Z" fill="#00A0FF"/>
        <path d="M15.9607 10.2539L15.5856 8.73762C15.5341 8.53309 15.5035 8.2254 15.5042 7.92394C15.5037 7.642 15.5305 7.36 15.5758 7.16834L15.9323 5.64784L15.9326 5.64715C15.9563 5.544 15.9674 5.43928 15.9676 5.33525C15.9667 5.06328 15.8944 4.79619 15.7684 4.5579C15.6419 4.32034 15.4602 4.10865 15.2231 3.96472L13.8854 3.15769C13.7106 3.05297 13.4808 2.8664 13.2736 2.66078C13.0655 2.456 12.8758 2.22862 12.7689 2.05515L11.9458 0.727686C11.8005 0.49478 11.59 0.31728 11.354 0.193936C11.1175 0.070811 10.8532 0.000498535 10.5844 6.10352e-05C10.4742 6.10352e-05 10.3632 0.0124985 10.2541 0.039311L8.738 0.414655C8.53303 0.465686 8.22534 0.49653 7.92387 0.496061C7.64193 0.496499 7.35993 0.469686 7.16871 0.424374L5.64799 0.0678735C5.5444 0.043686 5.43946 0.0325923 5.33565 0.0325923C5.06343 0.0330298 4.79612 0.105811 4.55831 0.231811C4.32049 0.358249 4.10906 0.539936 3.96512 0.777311L3.15831 2.11459C3.0534 2.28962 2.86681 2.51947 2.6614 2.72687C2.45662 2.93497 2.22903 3.1244 2.05578 3.23112L0.728307 4.05434C0.49515 4.19944 0.317463 4.41019 0.194119 4.64622C0.0709941 4.88247 0.000900391 5.14712 0.000244141 5.41578C0.000494141 5.52603 0.0126816 5.63719 0.0397441 5.74631L0.415088 7.26237C0.465869 7.4669 0.496713 7.77459 0.496057 8.07606C0.496744 8.358 0.470119 8.64019 0.424619 8.83187L0.0680879 10.3524L0.0685254 10.3507C0.0434629 10.4558 0.0328066 10.5612 0.0325566 10.6648C0.0332441 10.937 0.105775 11.2041 0.231775 11.4423C0.358463 11.6799 0.5399 11.8913 0.777276 12.0355L2.11521 12.8424C2.28981 12.9473 2.51984 13.1339 2.72706 13.3393C2.93515 13.5441 3.12437 13.7714 3.23131 13.9452L4.05459 15.2724C4.19968 15.5054 4.41043 15.6828 4.64603 15.8062C4.88253 15.9293 5.14693 15.9996 5.41603 16.0001C5.52606 16.0001 5.637 15.9879 5.74612 15.9608L7.26262 15.5857C7.46671 15.5344 7.77484 15.5036 8.07631 15.5042C8.35824 15.5038 8.64043 15.5304 8.8319 15.5759L10.3524 15.9324C10.4558 15.9566 10.5605 15.9674 10.6647 15.9674C10.9367 15.967 11.204 15.8942 11.4423 15.7684C11.6797 15.6417 11.8916 15.4603 12.0355 15.2229L12.8423 13.8857C12.9472 13.7107 13.1338 13.4808 13.3392 13.2734C13.5438 13.0653 13.7714 12.8759 13.9449 12.7692L15.2723 11.9459C15.5055 11.8007 15.6827 11.5899 15.8061 11.3541C15.929 11.1176 15.9993 10.8532 15.9997 10.5843C15.9997 10.4744 15.9607 10.2539 15.9607 10.2539ZM15.216 11.0459C15.1406 11.1916 15.0327 11.3116 14.9216 11.38L13.5943 12.2032C13.3529 12.3534 13.1002 12.5686 12.8656 12.8057C12.6315 13.0432 12.4194 13.2986 12.2724 13.5415L11.4655 14.8788C11.3979 14.9922 11.277 15.1026 11.1301 15.1801C10.9837 15.2584 10.8135 15.3023 10.6645 15.3017C10.607 15.3017 10.5529 15.2957 10.5039 15.2841L8.98337 14.9277C8.71562 14.8656 8.39793 14.8389 8.07559 14.8385C7.73062 14.8389 7.38703 14.8693 7.10171 14.9394L5.58543 15.3146C5.53353 15.3276 5.47584 15.3343 5.41506 15.3343C5.2664 15.335 5.09828 15.2923 4.95318 15.2161C4.80765 15.1404 4.68762 15.0328 4.61953 14.9217L3.79606 13.5942C3.64587 13.3531 3.43093 13.1002 3.19374 12.8657C2.95618 12.6314 2.70081 12.4193 2.4579 12.272L1.12021 11.4652C1.00684 11.3977 0.896401 11.2768 0.818932 11.1297C0.7404 10.9836 0.696713 10.8134 0.697338 10.6643C0.697088 10.6064 0.703119 10.5529 0.714869 10.5052V10.5037L1.07159 8.98319C1.13368 8.71562 1.16012 8.39775 1.16074 8.07565C1.16006 7.73069 1.12946 7.38709 1.06003 7.10222L0.684463 5.58572C0.671588 5.53359 0.664744 5.47612 0.664932 5.41512C0.664244 5.26672 0.706869 5.09853 0.783151 4.95347C0.858557 4.8075 0.966401 4.68772 1.07778 4.61937L2.40524 3.79609C2.64662 3.6459 2.89931 3.43072 3.13399 3.19359C3.36803 2.95603 3.5799 2.70065 3.72718 2.45775L4.53403 1.12025C4.60168 1.00687 4.72237 0.896436 4.86946 0.818967C5.01565 0.740655 5.18556 0.696936 5.3349 0.697374C5.39215 0.697374 5.44584 0.703342 5.49531 0.715124L7.01603 1.07162C7.28334 1.13372 7.601 1.16034 7.92337 1.16078C8.26834 1.16009 8.61193 1.1295 8.89746 1.05984L10.4137 0.684499C10.4659 0.671436 10.5231 0.66478 10.5841 0.66478C10.7325 0.664342 10.9007 0.706717 11.0457 0.782999C11.1915 0.858655 11.3117 0.966436 11.3798 1.07781L12.2031 2.40509C12.3535 2.64622 12.5682 2.8989 12.8054 3.13362C13.0432 3.36765 13.2986 3.57975 13.5415 3.72706L14.879 4.5339C14.9924 4.60156 15.1026 4.72225 15.18 4.86934C15.2586 5.01553 15.3022 5.18569 15.3016 5.33478C15.3019 5.39203 15.2957 5.44634 15.2841 5.49606V5.49562L14.9276 7.01612C14.8657 7.28344 14.8384 7.60134 14.8382 7.92365C14.8389 8.26837 14.8693 8.61203 14.9394 8.89775L15.3147 10.4134H15.3145C15.3275 10.4651 15.334 10.5225 15.334 10.584C15.3347 10.7324 15.2923 10.9008 15.216 11.0459Z" fill="#00A0FF"/>
    </g>
    <defs>
        <clipPath id="clip0">
            <rect width="16" height="16" fill="white"/>
        </clipPath>
    </defs>
</svg>
