<svg width="36" height="36" viewBox="0 0 36 36" fill="none"
    xmlns="http://www.w3.org/2000/svg">
    <path d="M34.0851 0H1.91489C0.857106 0 0 0.857489 0 1.91489V34.0851C0 35.1425 0.857106 36 1.91489 36H34.0851C35.1429 36 36 35.1425 36 34.0851V1.91489C36 0.857489 35.1429 0 34.0851 0ZM28.6732 20.276C29.6544 21.2335 30.6919 22.135 31.5732 23.1932C31.963 23.6604 32.3307 24.143 32.6106 24.6864C33.0093 25.4616 32.6493 26.3129 31.9546 26.3585L27.6438 26.3574C26.5309 26.4489 25.6446 26.0008 24.8971 25.2398C24.3015 24.6328 23.7477 23.9848 23.1737 23.3579C22.9397 23.1001 22.6915 22.8577 22.3981 22.6662C21.8106 22.2848 21.3001 22.4012 20.9627 23.0143C20.6196 23.6386 20.5403 24.331 20.5089 25.0269C20.461 26.0437 20.1546 26.3091 19.1348 26.3562C16.9556 26.4589 14.8871 26.128 12.9657 25.03C11.2695 24.061 9.95783 22.6923 8.81502 21.1443C6.58762 18.1252 4.88183 14.8113 3.34992 11.4024C3.00485 10.6346 3.25723 10.2236 4.10323 10.2079C5.51106 10.18 6.91851 10.1838 8.32443 10.2064C8.89736 10.2152 9.27613 10.543 9.49557 11.083C10.2558 12.9539 11.1887 14.734 12.3568 16.3846C12.6682 16.8239 12.986 17.2624 13.438 17.573C13.9374 17.9161 14.318 17.8031 14.5536 17.2459C14.7041 16.8905 14.7692 16.5129 14.8014 16.133C14.9132 14.8324 14.9266 13.5318 14.7336 12.2362C14.6129 11.4258 14.1564 10.9023 13.3483 10.7491C12.937 10.6709 12.9971 10.5185 13.1971 10.2837C13.544 9.87702 13.8711 9.62579 14.5206 9.62579L19.3925 9.62502C20.1608 9.77515 20.3316 10.1198 20.4361 10.8931L20.4407 16.3057C20.4327 16.6052 20.5905 17.4922 21.1282 17.6883C21.5583 17.8303 21.8436 17.4853 22.1009 17.2118C23.2683 15.9729 24.1001 14.5095 24.8457 12.9956C25.174 12.3281 25.4585 11.6364 25.7343 10.9444C25.9384 10.4323 26.2578 10.1803 26.8353 10.1895L31.5253 10.1945C31.6632 10.1945 31.8045 10.196 31.9412 10.2186C32.7309 10.3546 32.9473 10.6947 32.7033 11.466C32.3188 12.6774 31.5701 13.6869 30.8378 14.6987C30.0554 15.7806 29.2201 16.8269 28.4434 17.9142C27.7319 18.9115 27.7893 19.4124 28.6732 20.276Z" fill="#00A0FF"/>
</svg>
