<svg width="64" height="64" viewBox="0 0 64 64" fill="none"
    xmlns="http://www.w3.org/2000/svg">
    <path d="M15.501 41.004C17.431 41.004 19.001 39.434 19.001 37.504C19.001 35.574 17.431 34.004 15.501 34.004C13.571 34.004 12.001 35.574 12.001 37.504C12.001 39.434 13.571 41.004 15.501 41.004ZM15.501 36.004C16.328 36.004 17.001 36.677 17.001 37.504C17.001 38.331 16.328 39.004 15.501 39.004C14.674 39.004 14.001 38.331 14.001 37.504C14.001 36.677 14.674 36.004 15.501 36.004Z" fill="#00A0FF"/>
    <path d="M57 63V59C57 58.447 56.553 58 56 58C55.448 58 55 57.552 55 57C55 56.447 54.553 56 54 56H10C9.447 56 9 56.447 9 57C9 57.552 8.552 58 8 58C7.447 58 7 58.447 7 59V63C7 63.553 7.447 64 8 64C8.553 64 9 63.553 9 63V59.815C9.848 59.513 10.514 58.847 10.815 58H53.184C53.486 58.848 54.152 59.514 54.999 59.815V63C54.999 63.553 55.446 64 55.999 64C56.552 64 57 63.553 57 63Z" fill="#00A0FF"/>
    <path d="M1 53H2V63C2 63.553 2.447 64 3 64C3.553 64 4 63.553 4 63V53H60V63C60 63.553 60.447 64 61 64C61.553 64 62 63.553 62 63V53H63C63.553 53 64 52.553 64 52V48C64 47.447 63.553 47 63 47H62V41C62 37.141 58.859 34 55 34C55 34 55 34 54.999 34L52 34.002V32.377C55.58 30.299 57.999 26.434 58 22.005C58 22.004 58 22.004 58 22.004V13C58 10.033 55.833 7.568 53 7.09V4C53 3.447 52.553 3 52 3H44C43.995 3 43.991 3.003 43.987 3.003C38.479 3.01 34 7.492 34 13V22.002C34 26.432 36.419 30.299 40 32.377V34.002L37.001 34C37 34 37 34 37 34C33.141 34 30 37.141 30 41V43.004H29.001V29.004C29.001 27.35 27.655 26.004 26.001 26.004H5.001C3.347 26.004 2.001 27.35 2.001 29.004V46.002C2.001 46.354 2.073 46.687 2.185 47H1C0.447 47 0 47.447 0 48V52C0 52.553 0.447 53 1 53ZM44 5.002C44.004 5.002 44.006 5 44.01 5H51V8C51 8.553 51.447 9 52 9C54.206 9 56 10.794 56 13V15.586L54.707 14.293C54.693 14.279 54.676 14.275 54.662 14.264C54.609 14.216 54.551 14.184 54.491 14.15C54.436 14.119 54.386 14.085 54.328 14.064C54.268 14.043 54.208 14.039 54.146 14.029C54.081 14.019 54.018 14.007 53.953 14.009C53.892 14.012 53.836 14.03 53.776 14.043C53.709 14.06 53.642 14.073 53.578 14.104C53.561 14.112 53.543 14.111 53.526 14.12C53.491 14.139 49.987 16 46 16C42.032 16 38.508 14.138 38.473 14.119C38.456 14.11 38.439 14.111 38.422 14.103C38.359 14.074 38.293 14.059 38.225 14.043C38.164 14.028 38.106 14.01 38.043 14.008C37.981 14.005 37.923 14.018 37.861 14.027C37.796 14.036 37.731 14.042 37.669 14.064C37.613 14.084 37.564 14.118 37.511 14.148C37.45 14.183 37.391 14.215 37.338 14.263C37.324 14.275 37.307 14.279 37.293 14.292L36 15.586V13C36 8.59 39.589 5.002 44 5.002ZM36 22.002V18.414L38.204 16.21C39.513 16.806 42.56 18 46 18C49.44 18 52.487 16.806 53.796 16.21L56 18.414V22.002C56 27.515 51.514 32 46 32C40.486 32 36 27.515 36 22.002ZM46 34C47.404 34 48.747 33.745 50 33.3V34.588L48.73 35.857L46.316 35.052C46.28 35.04 46.244 35.046 46.207 35.038C46.139 35.023 46.072 35.013 46 35.013C45.929 35.013 45.862 35.024 45.793 35.038C45.757 35.046 45.721 35.039 45.684 35.052L43.27 35.857L42 34.588V33.3C43.253 33.745 44.596 34 46 34ZM32 41C32 38.243 34.243 36 37 36L40.586 36.002L42.293 37.707C42.309 37.723 42.33 37.728 42.347 37.742C42.412 37.801 42.484 37.846 42.563 37.886C42.595 37.902 42.625 37.921 42.658 37.934C42.767 37.974 42.881 38 43 38C43.104 38 43.211 37.983 43.316 37.948L46 37.054L48.684 37.949C48.789 37.983 48.896 38 49 38C49.119 38 49.233 37.974 49.343 37.934C49.377 37.921 49.406 37.902 49.438 37.886C49.517 37.847 49.588 37.801 49.654 37.742C49.671 37.727 49.692 37.722 49.708 37.707L51.415 36.002L55 36C57.757 36 60 38.243 60 41V47H38.817C38.928 46.687 39 46.354 39 46.004V44.004C39 43.451 38.553 43.004 38 43.004H32V41ZM37 45.004V46.004C37 46.549 36.562 46.989 36.02 47H28.818C28.928 46.688 29 46.358 29 46.01C29 46.007 29.002 46.005 29.002 46.002V45.004H37ZM5.001 28.004H26.001C26.553 28.004 27.001 28.452 27.001 29.004V43.999C27.001 44.001 27 44.002 27 44.004C27 44.006 27.001 44.007 27.001 44.009V45.999C27.001 46.001 27 46.002 27 46.004C27 46.549 26.562 46.989 26.02 47H4.991C4.444 46.994 4.001 46.551 4.001 46.002V29.004C4.001 28.452 4.449 28.004 5.001 28.004ZM2 49H3.99C3.994 49 3.996 49.002 4 49.002H24.989C24.993 49.002 24.996 49.004 24.999 49.004H36C36.014 49.004 36.025 49 36.039 49H60.98C60.987 49 60.993 49.004 61 49.004C61.007 49.004 61.013 49 61.02 49H62V51H2V49Z" fill="#00A0FF"/>
    <path d="M46.0299 46C46.5819 46 47.0299 45.553 47.0299 45C47.0299 44.447 46.5819 44 46.0299 44H46.0199C45.4679 44 45.0259 44.447 45.0259 45C45.0259 45.553 45.4779 46 46.0299 46Z" fill="#00A0FF"/>
    <path d="M46.0299 42C46.5819 42 47.0299 41.553 47.0299 41C47.0299 40.447 46.5819 40 46.0299 40H46.0199C45.4679 40 45.0259 40.447 45.0259 41C45.0259 41.553 45.4779 42 46.0299 42Z" fill="#00A0FF"/>
    <path d="M14.533 22.947L15.293 23.707C15.48 23.895 15.735 24 16 24C16.266 24 16.52 23.895 16.707 23.707L17.622 22.791C23.076 21.776 27 17.08 27 11.5C27 5.159 21.841 0 15.5 0C9.159 0 4 5.159 4 11.5C4 17.498 8.596 22.453 14.533 22.947ZM15.5 2C20.738 2 25 6.262 25 11.5C25 16.2 21.629 20.142 16.984 20.871C16.775 20.904 16.582 21.003 16.432 21.152L16 21.586L15.682 21.268C15.506 21.092 15.272 20.989 15.025 20.976C9.964 20.725 6 16.563 6 11.5C6 6.262 10.262 2 15.5 2Z" fill="#00A0FF"/>
    <path d="M18.793 14.695C18.988 14.89 19.244 14.988 19.5 14.988C19.756 14.988 20.012 14.89 20.207 14.695L22.695 12.207C22.699 12.203 22.703 12.203 22.707 12.199C22.903 12.004 23 11.747 23 11.49C23 11.233 22.903 10.977 22.707 10.781C22.703 10.777 22.699 10.777 22.695 10.773L20.207 8.283C19.816 7.892 19.184 7.892 18.793 8.283C18.402 8.673 18.402 9.306 18.793 9.697L20.584 11.49L18.793 13.281C18.402 13.672 18.402 14.305 18.793 14.695Z" fill="#00A0FF"/>
    <path d="M10.793 14.695C10.988 14.89 11.244 14.988 11.5 14.988C11.756 14.988 12.012 14.89 12.207 14.695C12.598 14.304 12.598 13.672 12.207 13.281L10.416 11.49L12.207 9.697C12.598 9.306 12.598 8.673 12.207 8.283C11.816 7.892 11.184 7.892 10.793 8.283L8.305 10.773C8.301 10.777 8.297 10.777 8.293 10.781C8.097 10.978 8 11.233 8 11.49C8 11.747 8.097 12.004 8.293 12.199C8.297 12.203 8.301 12.203 8.305 12.207L10.793 14.695Z" fill="#00A0FF"/>
    <path d="M13.685 16.937C13.79 16.972 13.897 16.989 14.001 16.989C14.42 16.989 14.811 16.724 14.949 16.305L17.949 7.30101C18.124 6.77701 17.841 6.21001 17.317 6.03601C16.789 5.85901 16.225 6.14401 16.052 6.66801L13.052 15.672C12.878 16.196 13.161 16.763 13.685 16.937Z" fill="#00A0FF"/>
</svg>
